<?xml version="1.0" standalone="no"?>
<!DOCTYPE svg PUBLIC "-//W3C//DTD SVG 20010904//EN"
 "http://www.w3.org/TR/2001/REC-SVG-20010904/DTD/svg10.dtd">
<svg version="1.0" xmlns="http://www.w3.org/2000/svg"
 width="56.000000pt" height="56.000000pt" viewBox="0 0 56.000000 56.000000"
 preserveAspectRatio="xMidYMid meet">

<g transform="translate(0.000000,56.000000) scale(0.100000,-0.100000)"
fill="#000000" stroke="none">
<path d="M222 510 c-49 -11 -108 -55 -139 -102 -23 -35 -29 -55 -32 -120 l-3
-78 29 0 c30 0 30 0 25 49 -12 128 83 224 203 206 91 -13 165 -116 151 -206
-6 -35 -4 -40 10 -35 8 3 22 6 30 6 25 0 18 98 -12 158 -30 61 -74 98 -140
118 -51 15 -72 16 -122 4z"/>
<path d="M382 130 c-37 -31 -95 -43 -144 -29 -24 6 -48 15 -55 21 -6 5 -29 8
-50 6 l-38 -3 43 -32 c55 -40 127 -57 188 -43 50 11 107 46 130 79 14 20 14
21 -18 21 -18 -1 -44 -9 -56 -20z"/>
</g>
</svg>
