<?xml version="1.0" standalone="no"?>
<!DOCTYPE svg PUBLIC "-//W3C//DTD SVG 20010904//EN"
 "http://www.w3.org/TR/2001/REC-SVG-20010904/DTD/svg10.dtd">
<svg version="1.0" xmlns="http://www.w3.org/2000/svg"
 width="56.000000pt" height="56.000000pt" viewBox="0 0 56.000000 56.000000"
 preserveAspectRatio="xMidYMid meet">

<g transform="translate(0.000000,56.000000) scale(0.100000,-0.100000)"
fill="#000000" stroke="none">
<path d="M420 501 c0 -7 -4 -10 -9 -7 -4 3 -16 -2 -24 -12 -19 -21 -50 -92
-41 -92 4 0 -5 -9 -20 -21 -18 -14 -24 -25 -17 -33 5 -6 6 -34 3 -63 l-7 -53
-27 14 c-18 9 -28 11 -30 4 -3 -7 -15 -4 -33 6 -24 14 -26 16 -7 13 12 -3 22
-2 22 2 0 13 -26 42 -35 40 -6 -1 -31 7 -56 19 -55 24 -77 28 -102 17 -14 -6
-10 -12 27 -36 25 -15 58 -47 73 -71 15 -24 31 -44 35 -46 5 -2 3 -12 -2 -23
-10 -17 -7 -19 24 -19 26 0 36 -5 41 -20 8 -24 45 -48 45 -28 0 6 7 3 15 -8 8
-11 15 -14 15 -6 0 6 7 12 15 12 19 0 19 38 1 63 -19 25 -26 21 -19 -13 3 -19
1 -30 -6 -30 -6 0 -11 9 -11 20 0 11 -4 20 -10 20 -18 0 -11 18 10 25 23 7 70
-21 71 -44 0 -12 2 -11 9 4 5 11 9 14 9 6 1 -8 8 -11 22 -8 12 3 22 0 26 -9 7
-18 23 -18 23 -1 0 8 11 24 25 37 20 19 25 33 25 71 0 26 -3 50 -8 52 -9 6 -8
59 2 75 4 7 1 12 -9 12 -9 0 -13 5 -10 10 3 6 1 10 -4 10 -6 0 -11 7 -11 15 0
8 -4 15 -9 15 -6 0 -7 15 -4 33 3 23 0 37 -11 46 -11 10 -16 10 -16 2z m-1
-197 c-26 -28 -79 -59 -80 -47 0 5 -4 -1 -9 -12 -8 -18 -9 -18 -9 5 0 14 8 36
19 50 21 27 26 21 9 -12 -16 -30 -5 -31 22 -1 13 14 18 23 12 19 -7 -4 -13 -2
-13 4 0 6 8 9 18 6 9 -3 24 -1 32 4 25 16 25 11 -1 -16z m40 -28 c9 -11 9 -16
0 -21 -8 -6 -8 -9 1 -15 8 -5 7 -9 -4 -13 -9 -4 -16 -3 -16 1 0 12 -43 8 -65
-6 -17 -11 -15 -12 18 -6 46 8 48 -1 5 -19 l-33 -14 43 3 c23 1 42 -2 42 -7 0
-5 -5 -9 -11 -9 -5 0 -7 -4 -4 -10 3 -5 -1 -10 -9 -10 -8 0 -18 5 -21 11 -4 6
-13 8 -21 5 -25 -9 -45 5 -38 26 4 15 3 18 -6 13 -9 -5 -11 -4 -6 3 4 7 27 23
52 38 24 14 44 30 44 35 0 14 16 11 29 -5z m-244 -54 c-3 -3 -11 0 -18 7 -9
10 -8 11 6 5 10 -3 15 -9 12 -12z m60 -2 c3 -5 -3 -10 -15 -10 -12 0 -18 5
-15 10 3 6 10 10 15 10 5 0 12 -4 15 -10z m-18 -65 c0 -8 -2 -15 -4 -15 -3 0
-11 7 -19 15 -14 13 -13 15 4 15 10 0 19 -7 19 -15z"/>
<path d="M424 258 l-19 -23 23 19 c21 18 27 26 19 26 -2 0 -12 -10 -23 -22z"/>
</g>
</svg>
