<?xml version="1.0" standalone="no"?>
<!DOCTYPE svg PUBLIC "-//W3C//DTD SVG 20010904//EN"
 "http://www.w3.org/TR/2001/REC-SVG-20010904/DTD/svg10.dtd">
<svg version="1.0" xmlns="http://www.w3.org/2000/svg"
 width="56.000000pt" height="56.000000pt" viewBox="0 0 56.000000 56.000000"
 preserveAspectRatio="xMidYMid meet">

<g transform="translate(0.000000,56.000000) scale(0.100000,-0.100000)"
fill="#000000" stroke="none">
<path d="M420 409 c-14 -5 -33 -20 -42 -32 -10 -12 -18 -17 -18 -10 0 28 -32
43 -91 43 l-59 0 0 -85 0 -85 30 0 c25 0 30 4 30 25 0 19 5 25 23 25 13 0 32
7 43 15 27 20 31 19 38 -15 4 -23 15 -35 41 -46 43 -18 79 -10 105 23 56 72
-17 175 -100 142z m-110 -59 c0 -13 -7 -20 -20 -20 -13 0 -20 7 -20 20 0 13 7
20 20 20 13 0 20 -7 20 -20z m174 4 c18 -46 -10 -92 -45 -74 -19 11 -28 68
-12 83 12 13 51 7 57 -9z"/>
<path d="M30 406 c0 -2 13 -20 30 -41 l29 -37 -23 -32 c-40 -53 -40 -56 -7
-56 22 0 34 7 44 26 l13 25 14 -25 c9 -19 22 -26 42 -26 15 0 28 2 28 5 0 3
-12 23 -26 45 l-27 40 27 34 c33 43 33 46 -3 46 -21 0 -32 -6 -36 -20 -3 -11
-10 -20 -15 -20 -5 0 -14 9 -20 20 -7 13 -21 20 -40 20 -17 0 -30 -2 -30 -4z"/>
<path d="M20 175 c0 -45 0 -45 35 -45 19 0 35 5 35 10 0 6 8 5 19 -2 15 -9 23
-9 35 1 19 16 37 6 29 -15 -4 -12 0 -15 23 -12 26 3 29 7 32 46 3 41 2 42 -27
42 -18 0 -31 -5 -31 -12 0 -9 -3 -9 -12 0 -18 18 -46 14 -60 -8 -20 -32 -48
-26 -48 10 0 20 -5 30 -15 30 -11 0 -15 -12 -15 -45z m118 -6 c-2 -6 -8 -10
-13 -10 -5 0 -11 4 -13 10 -2 6 4 11 13 11 9 0 15 -5 13 -11z m72 2 c0 -6 -4
-13 -10 -16 -5 -3 -10 1 -10 9 0 9 5 16 10 16 6 0 10 -4 10 -9z m0 -35 c0 -3
-4 -8 -10 -11 -5 -3 -10 -1 -10 4 0 6 5 11 10 11 6 0 10 -2 10 -4z"/>
<path d="M342 208 c-6 -8 -29 -12 -56 -11 l-46 2 0 -35 c0 -19 5 -34 10 -34 6
0 10 5 10 11 0 8 4 8 13 1 6 -5 30 -10 53 -9 l41 0 -2 39 c-3 45 -8 53 -23 36z
m-21 -36 c-7 -2 -18 1 -23 6 -8 8 -4 9 13 5 13 -4 18 -8 10 -11z"/>
<path d="M380 165 c0 -19 5 -35 10 -35 6 0 10 5 10 10 0 6 8 5 20 -2 15 -10
25 -10 37 -2 12 8 23 8 34 1 9 -6 24 -7 33 -4 20 8 21 37 2 37 -8 0 -18 5 -22
11 -4 8 1 9 17 4 19 -6 21 -5 13 5 -16 17 -49 8 -48 -13 1 -9 -4 -17 -11 -17
-7 0 -20 -3 -29 -6 -11 -4 -16 -1 -16 11 0 12 6 16 20 12 11 -3 20 -1 20 4 0
16 -32 23 -51 10 -12 -7 -19 -7 -19 -1 0 5 -4 10 -10 10 -5 0 -10 -16 -10 -35z"/>
</g>
</svg>
